<svg xmlns="http://www.w3.org/2000/svg" width="24" height="24" viewBox="0 0 24 24" fill="none">
<path fill-rule="evenodd" clip-rule="evenodd" d="M19.9355 11.6597L19.9502 11.6802C20.7962 12.8678 21.6654 14.0879 21.6697 15.8855C21.6697 18.9067 19.2005 21.3611 16.1669 21.3611C13.1333 21.3611 10.6641 18.9076 10.6641 15.8864C10.6641 14.1019 11.5323 12.8791 12.3749 11.6926L12.3979 11.6601C13.1355 10.6219 13.9403 9.48574 14.4603 7.76657C14.6926 6.99902 15.4485 6.48371 16.185 6.49835C16.9726 6.50894 17.6558 7.01515 17.8743 7.77308C18.3943 9.49475 19.1991 10.631 19.9355 11.6597ZM14.0295 12.8204C13.219 13.9608 12.6658 14.7573 12.6658 15.8864C12.6658 17.7983 14.2336 19.3554 16.1629 19.3554C18.0921 19.3554 19.6596 17.7985 19.656 15.8831C19.656 14.7455 19.1339 13.9956 18.2965 12.8208L18.2952 12.819C17.6203 11.8712 16.7767 10.6866 16.1618 8.99108C15.5526 10.6735 14.7139 11.8557 14.0409 12.8044L14.0295 12.8204Z" fill="#67748B" fill-opacity="0.8"></path>
<path fill-rule="evenodd" clip-rule="evenodd" d="M11.9444 5.21374C11.9518 5.22483 11.9593 5.23597 11.9668 5.24715C12.3365 5.79735 12.7769 6.45281 12.7769 7.4153C12.7769 9.06537 11.4737 10.4311 9.84548 10.4311C8.21729 10.4311 6.91406 9.06537 6.91406 7.4153C6.91406 6.44636 7.36379 5.78372 7.74073 5.22832C7.74436 5.22296 7.74799 5.21761 7.75161 5.21228C8.06702 4.74915 8.36727 4.30349 8.56311 3.61621C8.64257 3.33937 8.79249 3.08938 9.02093 2.90994C9.25129 2.729 9.53899 2.63711 9.86044 2.6397C10.46 2.6452 10.9726 3.04289 11.1321 3.62095C11.332 4.30828 11.6285 4.74993 11.943 5.21177L11.9444 5.21374ZM9.41205 6.33586C9.03831 6.8862 8.91977 7.09975 8.91977 7.4153C8.91977 7.99417 9.35477 8.42539 9.84548 8.42539C10.3355 8.42539 10.7712 7.99488 10.7712 7.41129C10.7712 7.09191 10.6529 6.88267 10.2835 6.33675C10.1485 6.14118 9.99681 5.919 9.84526 5.66085C9.70592 5.89815 9.56731 6.1046 9.444 6.28826C9.43363 6.3037 9.42337 6.31899 9.41323 6.33411L9.41205 6.33586Z" fill="#67748B" fill-opacity="0.8"></path>
<path fill-rule="evenodd" clip-rule="evenodd" d="M6.40943 10.6934C6.24992 10.1153 5.73771 9.71763 5.13818 9.71212L5.11521 9.71191L5.09241 9.71462C4.6028 9.77279 4.01959 10.0645 3.84064 10.688C3.6448 11.3752 3.34471 11.8211 3.0293 12.2842C3.02568 12.2895 3.02171 12.2954 3.01807 12.3007C2.64113 12.8561 2.19141 13.5188 2.19141 14.4877C2.19141 16.1378 3.49463 17.5035 5.12283 17.5035C6.75102 17.5035 8.05424 16.1378 8.05424 14.4877C8.05424 13.5252 7.61383 12.8698 7.24414 12.3196C7.23663 12.3084 7.22915 12.2973 7.2217 12.2862L7.22037 12.2842C6.90584 11.8224 6.60938 11.3807 6.40943 10.6934ZM4.6894 13.4083C4.31566 13.9586 4.19712 14.1722 4.19712 14.4877C4.19712 15.0666 4.63211 15.4978 5.12283 15.4978C5.61288 15.4978 6.04853 15.0673 6.04853 14.4837C6.04853 14.1643 5.93025 13.9551 5.56088 13.4092C5.42585 13.2136 5.27415 12.9914 5.12261 12.7333C4.98326 12.9706 4.84466 13.177 4.72135 13.3607C4.71098 13.3761 4.70072 13.3914 4.69057 13.4065L4.6894 13.4083Z" fill="#67748B" fill-opacity="0.8"></path>
</svg>